{"title":"The Dreamers (2003) BRRIP 1080P UNCUT NC-17","uid":10160576,"size":5550307735,"categoryP":"video","categoryS":"hd___movies","magnet":"?xt=urn:btih:d0eec4c28539e7627ba7779e3e4d66a0cfdc33cd&amp;dn=The+Dreamers+%282003%29+BRRIP+1080P+UNCUT+NC-17&amp;tr=udp%3A%2F%2Ftracker.openbittorrent.com%3A80&amp;tr=udp%3A%2F%2Fopen.demonii.com%3A1337&amp;tr=udp%3A%2F%2Ftracker.coppersurfer.tk%3A6969&amp;tr=udp%3A%2F%2Fexodus.desync.com%3A6969","seeders":1,"leechers":4,"uploader":"jmanwf","files":-1,"time":1400241378,"description":"Storyline\n\nParis, spring 1968. While most students take the lead in the May 'revolution', a French poet's twin son Theo and daughter Isabelle enjoy the good life in his grand Paris home. As film buffs they meet and 'adopt' modest, conservatively educated Californian student Matthew. With their parents away for a month, they drag him into an orgy of indulgence of all senses, losing all of his and the last of their innocence. A sexual threesome shakes their rapport, yet only the outside reality will break it up. \n\n\n\nFormat                                   : MPEG-4\nFormat profile                           : Base Media / Version 2\nCodec ID                                 : mp42\nFile size                                : 5.12 GiB\nDuration                                 : 1h 54mn\nOverall bit rate mode                    : Variable\nOverall bit rate                         : 6 397 Kbps\nWriting application                      : HandBrake 6190svn 2014051501\n\nVideo\nID                                       : 1\nFormat                                   : AVC\nFormat/Info                              : Advanced Video Codec\nFormat profile                           : &lt;a class=&quot;__cf_email__&quot; href=&quot;/cdn-cgi/l/email-protection&quot; data-cfemail=&quot;ce86a7a9a68e82fae0fe&quot;&gt;[email&amp;#160;protected]&lt;/a&gt;&lt;script cf-hash='f9e31' type=&quot;text/javascript&quot;&gt;\n/* &lt;![CDATA[ */!function(){try{var t=&quot;currentScript&quot;in document?document.currentScript:function(){for(var t=document.getElementsByTagName(&quot;script&quot;),e=t.length;e--;)if(t[e].getAttribute(&quot;cf-hash&quot;))return t[e]}();if(t&amp;&amp;t.previousSibling){var e,r,n,i,c=t.previousSibling,a=c.getAttribute(&quot;data-cfemail&quot;);if(a){for(e=&quot;&quot;,r=parseInt(a.substr(0,2),16),n=2;a.length-n;n+=2)i=parseInt(a.substr(n,2),16)^r,e+=String.fromCharCode(i);e=document.createTextNode(e),c.parentNode.replaceChild(e,c)}}}catch(u){}}();/* ]]&gt; */&lt;/script&gt;\nFormat settings, CABAC                   : Yes\nFormat settings, ReFrames                : 4 frames\nCodec ID                                 : avc1\nCodec ID/Info                            : Advanced Video Coding\nDuration                                 : 1h 54mn\nBit rate                                 : 6 000 Kbps\nWidth                                    : 1 920 pixels\nHeight                                   : 1 080 pixels\nDisplay aspect ratio                     : 16:9\nFrame rate mode                          : Variable\nFrame rate                               : 24.000 fps\nMinimum frame rate                       : 17.039 fps\nMaximum frame rate                       : 40.577 fps\nColor space                              : YUV\nChroma subsampling                       : 4:2:0\nBit depth                                : 8 bits\nScan type                                : Progressive\nBits/(Pixel*Frame)                       : 0.121\nStream size                              : 4.85 GiB (95%)\nWriting library                          : x264 core 142 r2431 ac76440\n\nColor primaries                          : BT.709\nTransfer characteristics                 : BT.709\nMatrix coefficients                      : BT.709\n\nAudio #1\nID                                       : 2\nFormat                                   : AAC\nFormat/Info                              : Advanced Audio Codec\nFormat profile                           : LC\nCodec ID                                 : 40\nDuration                                 : 1h 54mn\nBit rate mode                            : Variable\nBit rate                                 : 159 Kbps\nChannel(s)                               : 2 channels\nChannel positions                        : Front: L R\nSampling rate                            : 48.0 KHz\nCompression mode                         : Lossy\nStream size                              : 131 MiB (2%)\nLanguage                                 : English\n\nAudio #2\nID                                       : 3\nFormat                                   : AAC\nFormat/Info                              : Advanced Audio Codec\nFormat profile                           : LC\nCodec ID                                 : 40\nDuration                                 : 1h 54mn\nBit rate mode                            : Variable\nBit rate                                 : 159 Kbps\nChannel(s)                               : 2 channels\nChannel positions                        : Front: L R\nSampling rate                            : 48.0 KHz\nCompression mode                         : Lossy\nStream size                              : 131 MiB (2%)\nLanguage                                 : English\n\n\n\n\nINCLUDES DIRECTORIES COMMENTARY\n\nENGLISH SUBTITLES INCLUDES FOR NONE ENGLISH PART AND ENGLISH SPEAKING PARTS\n\n\n\n\n\n\n","torrent":{"xt":"urn:btih:d0eec4c28539e7627ba7779e3e4d66a0cfdc33cd","amp;dn":"The+Dreamers+%282003%29+BRRIP+1080P+UNCUT+NC-17","amp;tr":["udp%3A%2F%2Ftracker.openbittorrent.com%3A80","udp%3A%2F%2Fopen.demonii.com%3A1337","udp%3A%2F%2Ftracker.coppersurfer.tk%3A6969","udp%3A%2F%2Fexodus.desync.com%3A6969"],"infoHash":"d0eec4c28539e7627ba7779e3e4d66a0cfdc33cd","infoHashBuffer":{"type":"Buffer","data":[208,238,196,194,133,57,231,98,123,167,119,158,62,77,102,160,207,220,51,205]},"announce":[],"urlList":[]}}